<?xml version="1.0" encoding="UTF-8" standalone="no"?>
<svg
   xmlns:dc="http://purl.org/dc/elements/1.1/"
   xmlns:cc="http://creativecommons.org/ns#"
   xmlns:rdf="http://www.w3.org/1999/02/22-rdf-syntax-ns#"
   xmlns:svg="http://www.w3.org/2000/svg"
   xmlns="http://www.w3.org/2000/svg"
   xmlns:sodipodi="http://sodipodi.sourceforge.net/DTD/sodipodi-0.dtd"
   xmlns:inkscape="http://www.inkscape.org/namespaces/inkscape"
   width="16"
   height="16"
   viewBox="0 0 4.2333333 4.2333335"
   version="1.1"
   id="svg8"
   inkscape:version="1.0.1 (3bc2e813f5, 2020-09-07)"
   sodipodi:docname="password_icon.svg">
  <defs
     id="defs2">
    <inkscape:path-effect
       effect="bspline"
       id="path-effect852"
       is_visible="true"
       lpeversion="1"
       weight="33.333333"
       steps="2"
       helper_size="0"
       apply_no_weight="true"
       apply_with_weight="true"
       only_selected="false" />
  </defs>
  <sodipodi:namedview
     id="base"
     pagecolor="#2e2e2e"
     bordercolor="#666666"
     borderopacity="1.0"
     inkscape:pageopacity="0.01176471"
     inkscape:pageshadow="2"
     inkscape:zoom="45.254834"
     inkscape:cx="5.5529051"
     inkscape:cy="8.3529949"
     inkscape:document-units="px"
     inkscape:current-layer="layer1"
     inkscape:document-rotation="0"
     showgrid="false"
     units="px"
     inkscape:window-width="1920"
     inkscape:window-height="1017"
     inkscape:window-x="-8"
     inkscape:window-y="-8"
     inkscape:window-maximized="1" />
  <metadata
     id="metadata5">
    <rdf:RDF>
      <cc:Work
         rdf:about="">
        <dc:format>image/svg+xml</dc:format>
        <dc:type
           rdf:resource="http://purl.org/dc/dcmitype/StillImage" />
        <dc:title></dc:title>
      </cc:Work>
    </rdf:RDF>
  </metadata>
  <g
     inkscape:label="Layer 1"
     inkscape:groupmode="layer"
     id="layer1">
    <path
       id="path864"
       style="fill:#cccccc;fill-opacity:1;stroke:#9f9f9f;stroke-width:0.168027;stroke-linecap:butt;stroke-linejoin:miter;stroke-miterlimit:4;stroke-dasharray:none;stroke-opacity:1"
       d="M 2.3098509,0.61850045 A 0.92329695,0.92365184 89.981742 0 0 2.1172072,1.6416728 L 0.34859698,3.4096035 v 0.4751604 h 0.475343 0.47534312 V 3.4096035 H 1.774626 V 2.9344431 H 2.2499692 V 2.459283 L 2.5925501,2.1168332 a 0.92329695,0.92365184 89.981742 0 0 1.0235658,-0.1925697 0.92329695,0.92365184 89.981742 0 0 0,-1.30576307 0.92329695,0.92365184 89.981742 0 0 -1.306265,2e-8 z m 0.7705757,0.29511917 a 0.17012305,0.17005769 0.13475593 0 1 0.00418,-0.004178 0.17012305,0.17005769 0.13475593 0 1 0.2404569,-1.3e-7 0.17012305,0.17005769 0.13475593 0 1 -2e-7,0.24036441 0.17012305,0.17005769 0.13475593 0 1 -0.2404565,0 0.17012305,0.17005769 0.13475593 0 1 -0.00418,-0.23618803 z" />
  </g>
</svg>
