<?xml version="1.0" encoding="UTF-8" standalone="no"?>
<svg
   xmlns:dc="http://purl.org/dc/elements/1.1/"
   xmlns:cc="http://creativecommons.org/ns#"
   xmlns:rdf="http://www.w3.org/1999/02/22-rdf-syntax-ns#"
   xmlns:svg="http://www.w3.org/2000/svg"
   xmlns="http://www.w3.org/2000/svg"
   xmlns:sodipodi="http://sodipodi.sourceforge.net/DTD/sodipodi-0.dtd"
   xmlns:inkscape="http://www.inkscape.org/namespaces/inkscape"
   width="16"
   height="16"
   viewBox="0 0 4.2333333 4.2333335"
   version="1.1"
   id="svg8"
   inkscape:version="1.0.1 (3bc2e813f5, 2020-09-07)"
   sodipodi:docname="save_icon.svg">
  <defs
     id="defs2">
    <inkscape:path-effect
       effect="bspline"
       id="path-effect848"
       is_visible="true"
       lpeversion="1"
       weight="33.333333"
       steps="2"
       helper_size="0"
       apply_no_weight="true"
       apply_with_weight="true"
       only_selected="false" />
  </defs>
  <sodipodi:namedview
     id="base"
     pagecolor="#2e2e2e"
     bordercolor="#666666"
     borderopacity="1.0"
     inkscape:pageopacity="0.01176471"
     inkscape:pageshadow="2"
     inkscape:zoom="45.254834"
     inkscape:cx="6.7458991"
     inkscape:cy="8.1473541"
     inkscape:document-units="px"
     inkscape:current-layer="layer1"
     inkscape:document-rotation="0"
     showgrid="false"
     units="px"
     inkscape:window-width="1920"
     inkscape:window-height="1017"
     inkscape:window-x="-8"
     inkscape:window-y="-8"
     inkscape:window-maximized="1"
     showguides="false" />
  <metadata
     id="metadata5">
    <rdf:RDF>
      <cc:Work
         rdf:about="">
        <dc:format>image/svg+xml</dc:format>
        <dc:type
           rdf:resource="http://purl.org/dc/dcmitype/StillImage" />
        <dc:title></dc:title>
      </cc:Work>
    </rdf:RDF>
  </metadata>
  <g
     inkscape:label="Layer 1"
     inkscape:groupmode="layer"
     id="layer1">
    <path
       id="path846"
       style="fill:#9f9f9f;fill-opacity:1;stroke:none;stroke-width:0.999999px;stroke-linecap:butt;stroke-linejoin:miter;stroke-opacity:1"
       d="M 3.5839844,0 H 2 C 1.3082295,0 0.99999999,0.45265646 0.99999999,0.99999999 L 1,3.4179688 V 12.583984 L 0.99999999,15 c 0,0.48614 0.54438671,1 1.00000001,1 H 4.0839844 8.0009767 11.917969 14 c 0.50688,0 1,-0.436874 1,-1 V 13.083984 5 C 15,3.9426699 14.99951,3.5019682 14.5,2.7519531 14.00049,2.0019381 13.001953,1.0004999 12.251953,0.5 11.501953,-4.9988976e-4 10.856799,0 9.9999999,0 Z m 0.7148437,2 h 6.0214839 c 0.719058,0 1.298829,0.5797714 1.298829,1.2988281 V 5.7011719 C 11.619141,6.4202289 11.03937,7 10.320312,7 H 4.2988281 C 3.5797716,7 3,6.4202289 3,5.7011719 V 3.2988281 C 3,2.5797714 3.5797716,2 4.2988281,2 Z M 3.4394531,8.5 H 12.560547 C 13.357583,8.5 14,9.1424169 14,9.9394531 V 13.060547 C 14,13.857583 13.357583,14.5 12.560547,14.5 H 3.4394531 C 2.642417,14.5 2,13.857583 2,13.060547 V 9.9394531 C 2,9.1424169 2.642417,8.5 3.4394531,8.5 Z"
       transform="scale(0.26458334)"
       sodipodi:nodetypes="sccssssscsssssssssssssssssssssssssss" />
  </g>
</svg>
